HIERARCHY
ROOT Hips
{
  OFFSET 2.80164 150.773 -8.90056
  CHANNELS 6 Xposition Yposition Zposition Zrotation Xrotation Yrotation
  JOINT Spine
  {
    OFFSET 0 10.1816 0.1315
    CHANNELS 6 Xposition Yposition Zposition Zrotation Xrotation Yrotation
    JOINT Spine1
    {
      OFFSET 0 10.0835 -1.0008
      CHANNELS 6 Xposition Yposition Zposition Zrotation Xrotation Yrotation
      JOINT Spine2
      {
        OFFSET 0 9.1 -1.3734
        CHANNELS 6 Xposition Yposition Zposition Zrotation Xrotation Yrotation
        JOINT Neck
        {
          OFFSET 0 16.6717 -2.5162
          CHANNELS 6 Xposition Yposition Zposition Zrotation Xrotation Yrotation
          JOINT Head
          {
            OFFSET 0 9.6179 1.685
            CHANNELS 6 Xposition Yposition Zposition Zrotation Xrotation Yrotation
            JOINT HeadTop_End
            {
              OFFSET 0 17.8152 2.585
              CHANNELS 6 Xposition Yposition Zposition Zrotation Xrotation Yrotation
              End Site
              {
                OFFSET 0 0 0
              }
            }
            JOINT LeftEye
            {
              OFFSET 3.0676 6.4095 9.2836
              CHANNELS 6 Xposition Yposition Zposition Zrotation Xrotation Yrotation
              End Site
              {
                OFFSET 0 0 0
              }
            }
            JOINT RightEye
            {
              OFFSET -3.0676 6.4095 9.2835
              CHANNELS 6 Xposition Yposition Zposition Zrotation Xrotation Yrotation
              End Site
              {
                OFFSET 0 0 0
              }
            }
          }
        }
        JOINT LeftShoulder
        {
          OFFSET 4.5704 10.946 -2.628
          CHANNELS 6 Xposition Yposition Zposition Zrotation Xrotation Yrotation
          JOINT LeftArm
          {
            OFFSET 10.5924 -0.5246 -2.2321
            CHANNELS 6 Xposition Yposition Zposition Zrotation Xrotation Yrotation
            JOINT LeftForeArm
            {
              OFFSET 27.8415 -0.0001 0
              CHANNELS 6 Xposition Yposition Zposition Zrotation Xrotation Yrotation
              JOINT LeftHand
              {
                OFFSET 28.3288 0 0
                CHANNELS 6 Xposition Yposition Zposition Zrotation Xrotation Yrotation
                JOINT LeftHandThumb1
                {
                  OFFSET 2.4661 -1.575 2.6824
                  CHANNELS 6 Xposition Yposition Zposition Zrotation Xrotation Yrotation
                  JOINT LeftHandThumb2
                  {
                    OFFSET 3.2298 -1.8647 1.8647
                    CHANNELS 6 Xposition Yposition Zposition Zrotation Xrotation Yrotation
                    JOINT LeftHandThumb3
                    {
                      OFFSET 2.6526 -1.5315 1.5315
                      CHANNELS 6 Xposition Yposition Zposition Zrotation Xrotation Yrotation
                      End Site
                      {
                        OFFSET 1.9546 -1.1285 1.1285
                      }
                    }
                  }
                }
                JOINT LeftHandIndex1
                {
                  OFFSET 9.1093 -0.5171 2.2601
                  CHANNELS 6 Xposition Yposition Zposition Zrotation Xrotation Yrotation
                  JOINT LeftHandIndex2
                  {
                    OFFSET 3.6764 0 0
                    CHANNELS 6 Xposition Yposition Zposition Zrotation Xrotation Yrotation
                    JOINT LeftHandIndex3
                    {
                      OFFSET 2.8831 0 0
                      CHANNELS 6 Xposition Yposition Zposition Zrotation Xrotation Yrotation
                      End Site
                      {
                        OFFSET 2.3927 0 0
                      }
                    }
                  }
                }
                JOINT LeftHandMiddle1
                {
                  OFFSET 9.5334 0 0
                  CHANNELS 6 Xposition Yposition Zposition Zrotation Xrotation Yrotation
                  JOINT LeftHandMiddle2
                  {
                    OFFSET 3.6982 0 0
                    CHANNELS 6 Xposition Yposition Zposition Zrotation Xrotation Yrotation
                    JOINT LeftHandMiddle3
                    {
                      OFFSET 2.9509 0 0
                      CHANNELS 6 Xposition Yposition Zposition Zrotation Xrotation Yrotation
                      End Site
                      {
                        OFFSET 2.8339 0 0
                      }
                    }
                  }
                }
                JOINT LeftHandRing1
                {
                  OFFSET 9.1045 -0.0439 -1.8651
                  CHANNELS 6 Xposition Yposition Zposition Zrotation Xrotation Yrotation
                  JOINT LeftHandRing2
                  {
                    OFFSET 3.154 0 0
                    CHANNELS 6 Xposition Yposition Zposition Zrotation Xrotation Yrotation
                    JOINT LeftHandRing3
                    {
                      OFFSET 2.9377 0 0
                      CHANNELS 6 Xposition Yposition Zposition Zrotation Xrotation Yrotation
                      End Site
                      {
                        OFFSET 2.6475 0 0
                      }
                    }
                  }
                }
                JOINT LeftHandPinky1
                {
                  OFFSET 8.0778 -0.4887 -3.8061
                  CHANNELS 6 Xposition Yposition Zposition Zrotation Xrotation Yrotation
                  JOINT LeftHandPinky2
                  {
                    OFFSET 3.6 0 0
                    CHANNELS 6 Xposition Yposition Zposition Zrotation Xrotation Yrotation
                    JOINT LeftHandPinky3
                    {
                      OFFSET 2.1142 0 0
                      CHANNELS 6 Xposition Yposition Zposition Zrotation Xrotation Yrotation
                      End Site
                      {
                        OFFSET 1.9757 0 0
                      }
                    }
                  }
                }
              }
            }
          }
        }
        JOINT RightShoulder
        {
          OFFSET -4.57 10.9462 -2.628
          CHANNELS 6 Xposition Yposition Zposition Zrotation Xrotation Yrotation
          JOINT RightArm
          {
            OFFSET -10.5928 -0.5248 -2.2321
            CHANNELS 6 Xposition Yposition Zposition Zrotation Xrotation Yrotation
            JOINT RightForeArm
            {
              OFFSET -27.8415 0 0
              CHANNELS 6 Xposition Yposition Zposition Zrotation Xrotation Yrotation
              JOINT RightHand
              {
                OFFSET -28.3288 0 0.0001
                CHANNELS 6 Xposition Yposition Zposition Zrotation Xrotation Yrotation
                JOINT RightHandPinky1
                {
                  OFFSET -8.0767 -0.4885 -3.806
                  CHANNELS 6 Xposition Yposition Zposition Zrotation Xrotation Yrotation
                  JOINT RightHandPinky2
                  {
                    OFFSET -3.6 0 0.0001
                    CHANNELS 6 Xposition Yposition Zposition Zrotation Xrotation Yrotation
                    JOINT RightHandPinky3
                    {
                      OFFSET -2.1142 0 0
                      CHANNELS 6 Xposition Yposition Zposition Zrotation Xrotation Yrotation
                      End Site
                      {
                        OFFSET -1.9757 0 0
                      }
                    }
                  }
                }
                JOINT RightHandRing1
                {
                  OFFSET -9.1036 -0.0439 -1.8651
                  CHANNELS 6 Xposition Yposition Zposition Zrotation Xrotation Yrotation
                  JOINT RightHandRing2
                  {
                    OFFSET -3.154 0 0
                    CHANNELS 6 Xposition Yposition Zposition Zrotation Xrotation Yrotation
                    JOINT RightHandRing3
                    {
                      OFFSET -2.9377 0 0
                      CHANNELS 6 Xposition Yposition Zposition Zrotation Xrotation Yrotation
                      End Site
                      {
                        OFFSET -2.6475 0 0
                      }
                    }
                  }
                }
                JOINT RightHandMiddle1
                {
                  OFFSET -9.5325 0 0
                  CHANNELS 6 Xposition Yposition Zposition Zrotation Xrotation Yrotation
                  JOINT RightHandMiddle2
                  {
                    OFFSET -3.6982 0 0
                    CHANNELS 6 Xposition Yposition Zposition Zrotation Xrotation Yrotation
                    JOINT RightHandMiddle3
                    {
                      OFFSET -2.9509 0 0
                      CHANNELS 6 Xposition Yposition Zposition Zrotation Xrotation Yrotation
                      End Site
                      {
                        OFFSET -2.8339 0 0.0001
                      }
                    }
                  }
                }
                JOINT RightHandIndex1
                {
                  OFFSET -9.1083 -0.5168 2.2601
                  CHANNELS 6 Xposition Yposition Zposition Zrotation Xrotation Yrotation
                  JOINT RightHandIndex2
                  {
                    OFFSET -3.6764 0 0
                    CHANNELS 6 Xposition Yposition Zposition Zrotation Xrotation Yrotation
                    JOINT RightHandIndex3
                    {
                      OFFSET -2.8831 0 0
                      CHANNELS 6 Xposition Yposition Zposition Zrotation Xrotation Yrotation
                      End Site
                      {
                        OFFSET -2.3927 0 0
                      }
                    }
                  }
                }
                JOINT RightHandThumb1
                {
                  OFFSET -2.4648 -1.5727 2.6826
                  CHANNELS 6 Xposition Yposition Zposition Zrotation Xrotation Yrotation
                  JOINT RightHandThumb2
                  {
                    OFFSET -3.2298 -1.8647 1.8647
                    CHANNELS 6 Xposition Yposition Zposition Zrotation Xrotation Yrotation
                    JOINT RightHandThumb3
                    {
                      OFFSET -2.6526 -1.5314 1.5314
                      CHANNELS 6 Xposition Yposition Zposition Zrotation Xrotation Yrotation
                      End Site
                      {
                        OFFSET -1.9546 -1.1285 1.1285
                      }
                    }
                  }
                }
              }
            }
          }
        }
      }
    }
  }
  JOINT LeftUpLeg
  {
    OFFSET 8.2078 -6.7517 -1.5996
    CHANNELS 6 Xposition Yposition Zposition Zrotation Xrotation Yrotation
    JOINT LeftLeg
    {
      OFFSET 0 -44.3705 0.2846
      CHANNELS 6 Xposition Yposition Zposition Zrotation Xrotation Yrotation
      JOINT LeftFoot
      {
        OFFSET 0 -44.4279 -2.9822
        CHANNELS 6 Xposition Yposition Zposition Zrotation Xrotation Yrotation
        JOINT LeftToeBase
        {
          OFFSET 0 -8.7287 10.7106
          CHANNELS 6 Xposition Yposition Zposition Zrotation Xrotation Yrotation
          End Site
          {
            OFFSET 0 -0.0007 9.2781
          }
        }
      }
    }
  }
  JOINT RightUpLeg
  {
    OFFSET -8.2078 -6.7517 -1.5996
    CHANNELS 6 Xposition Yposition Zposition Zrotation Xrotation Yrotation
    JOINT RightLeg
    {
      OFFSET 0 -44.3705 0.2862
      CHANNELS 6 Xposition Yposition Zposition Zrotation Xrotation Yrotation
      JOINT RightFoot
      {
        OFFSET 0 -44.4277 -2.9838
        CHANNELS 6 Xposition Yposition Zposition Zrotation Xrotation Yrotation
        JOINT RightToeBase
        {
          OFFSET 0 -8.7287 10.7106
          CHANNELS 6 Xposition Yposition Zposition Zrotation Xrotation Yrotation
          End Site
          {
            OFFSET 0 -0.0007 9.2781
          }
        }
      }
    }
  }
}
MOTION
Frames:	4
Frame Time:	0.0333333
2.23254 132.136 -13.4851 -3.82857 33.9418 1.15611 8.88178e-016 10.1816 0.1315 -0.329268 10.6303 1.95957 0 10.0835 -1.0008 0.471702 6.12543 0.305413 -4.996e-016 9.1 -1.3734 0.487678 6.12441 0.274432 7.77156e-016 16.6717 -2.5162 -0.500187 -10.3578 -1.14176 4.44089e-016 9.6179 1.685 -0.664009 -16.2952 -7.75191 1.77636e-015 17.8152 2.585 -7.95139e-016 6.36111e-015 -7.95139e-016 3.0676 6.4095 9.2836 -7.95139e-016 6.36111e-015 -7.95139e-016 -3.0676 6.4095 9.2835 -7.95139e-016 6.36111e-015 -7.95139e-016 4.5704 10.946 -2.628 -2.45763 0.704091 -3.12348 10.5924 -0.5246 -2.2321 -34.4989 16.4167 -0.642209 27.8415 -0.0001 0 -0.000204298 -1.25312e-005 -51.4261 28.3288 -7.10543e-015 -1.42109e-014 51.9141 -47.3287 -13.8796 2.4661 -1.575 2.6824 9.12955 13.5363 -3.54344 3.2298 -1.8647 1.8647 -5.05301 8.76931 9.74603 2.6526 -1.5315 1.5315 3.67688 13.305 12.4556 9.1093 -0.5171 2.2601 -40.5763 5.12559 -6.65827 3.6764 -1.42109e-014 0 -68.2671 -4.36636 5.67284 2.8831 0 -3.55271e-015 -16.2211 -0.248674 1.39816 9.5334 2.84217e-014 -7.10543e-015 -45.4459 -5.52162 9.70297 3.6982 0 -7.10543e-015 -69.454 -4.57322 5.59937 2.9509 1.42109e-014 5.32907e-015 -17.2043 -0.283345 1.95917 9.1045 -0.0439 -1.8651 -50.868 -6.54238 15.8426 3.154 0 0 -66.3846 -3.2082 5.68542 2.9377 0 1.77636e-015 -22.2264 -0.167422 2.18143 8.0778 -0.4887 -3.8061 -46.5943 -18.1021 24.5355 3.6 7.10543e-015 -1.77636e-015 -65.6812 -3.66054 4.86491 2.1142 1.42109e-014 0 -19.1737 -0.486951 2.71289 -4.57 10.9462 -2.628 1.67118 1.17694 8.3202 -10.5928 -0.5248 -2.2321 11.1106 25.5025 -2.5015 -27.8415 -3.55271e-015 2.84217e-014 1.8595e-005 7.67951e-006 69.5263 -28.3288 0 0.0001 -40.5486 -20.2138 25.2925 -8.0767 -0.4885 -3.806 57.4087 -16.8434 -19.1104 -3.6 0 0.0001 59.2088 -3.06772 -4.59447 -2.1142 -1.42109e-014 -7.10543e-015 25.9639 -0.952002 -0.282656 -9.1036 -0.0439 -1.8651 54.8066 -6.96738 -12.5689 -3.154 0 0 60.0953 -2.66071 -5.38149 -2.9377 1.42109e-014 0 17.8912 -0.139909 0.0826808 -9.5325 1.42109e-014 -8.88178e-016 49.9115 -6.10246 -5.50082 -3.6982 0 -9.32587e-015 59.362 -3.58944 -5.30938 -2.9509 0 3.55271e-015 20.8617 -0.418424 -2.14481 -9.1083 -0.5168 2.2601 42.5006 5.76252 4.7998 -3.6764 0 -1.06581e-014 52.646 -2.88929 -5.08179 -2.8831 0 -9.76996e-015 13.1587 -0.222406 -0.0904205 -2.4648 -1.5727 2.6826 -4.65001 15.0473 1.69948 -3.2298 -1.8647 1.8647 1.13475 8.44444 -11.7758 -2.6526 -1.5314 1.5314 9.02222 6.32568 -11.9526 8.2078 -6.7517 -1.5996 165.362 -77.3078 154.765 3.55271e-015 -44.3705 0.2846 0.215526 81.5473 10.1339 3.55271e-015 -44.4279 -2.9822 -18.4154 -6.24165 6.45208 0 -8.7287 10.7106 5.25629e-006 1.86928 -1.86684e-006 -8.2078 -6.7517 -1.5996 179.874 -59.78 176.961 0 -44.3705 0.2862 -178.083 76.2823 169.43 -1.77636e-015 -44.4277 -2.9838 -14.7799 -11.4344 -9.67207 -3.55271e-015 -8.7287 10.7106 1.34384e-005 -0.540291 -2.71838e-006 
2.38576 125.454 -11.7378 -4.55378 34.6159 2.12264 -8.88178e-016 10.1816 0.1315 -0.65372 7.52887 2.36559 -8.88178e-016 10.0835 -1.0008 0.159643 4.2324 0.172045 4.44089e-016 9.1 -1.3734 0.159513 4.23098 0.198284 -4.44089e-016 16.6717 -2.5162 -0.585332 -9.62892 -1.33656 1.77636e-015 9.6179 1.685 0.699032 -11.4773 -9.21206 -3.55271e-015 17.8152 2.585 -1.98785e-015 3.18055e-015 -0 3.0676 6.4095 9.2836 -1.98785e-015 3.18055e-015 -0 -3.0676 6.4095 9.2835 -1.98785e-015 3.18055e-015 -0 4.5704 10.946 -2.628 -2.38744 0.593183 -2.1144 10.5924 -0.5246 -2.2321 -36.0264 14.3337 8.80028 27.8415 -0.0001 2.84217e-014 -0.000215621 6.41844e-006 -69.5292 28.3288 -7.10543e-015 0 49.9125 -37.3672 -18.2147 2.4661 -1.575 2.6824 9.12955 13.5363 -3.54342 3.2298 -1.8647 1.8647 -5.05301 8.7693 9.74603 2.6526 -1.5315 1.5315 3.67688 13.305 12.4556 9.1093 -0.5171 2.2601 -40.5763 5.12559 -6.65827 3.6764 0 1.42109e-014 -68.2672 -4.36635 5.67283 2.8831 7.10543e-015 0 -16.2211 -0.248666 1.39816 9.5334 1.42109e-014 0 -45.4459 -5.52163 9.70297 3.6982 -1.42109e-014 -7.10543e-015 -69.454 -4.57324 5.59937 2.9509 -7.10543e-015 0 -17.2043 -0.283341 1.95919 9.1045 -0.0439 -1.8651 -50.868 -6.54238 15.8426 3.154 0 0 -66.3846 -3.2082 5.68542 2.9377 0 1.77636e-015 -22.2264 -0.167414 2.18141 8.0778 -0.4887 -3.8061 -46.5943 -18.1021 24.5355 3.6 0 3.55271e-015 -65.6812 -3.66054 4.86492 2.1142 -1.42109e-014 0 -19.1737 -0.486941 2.71288 -4.57 10.9462 -2.628 2.00528 0.900736 5.29832 -10.5928 -0.5248 -2.2321 17.8379 27.339 -10.414 -27.8415 0 2.84217e-014 2.47349e-005 -1.57719e-005 77.7413 -28.3288 7.10543e-015 0.0001 -38.3189 -16.8374 26.5584 -8.0767 -0.4885 -3.806 57.4087 -16.8434 -19.1104 -3.6 3.55271e-015 0.0001 59.2088 -3.06773 -4.59445 -2.1142 0 0 25.9639 -0.952005 -0.282672 -9.1036 -0.0439 -1.8651 54.8066 -6.96737 -12.5689 -3.154 0 0 60.0953 -2.66071 -5.38153 -2.9377 -1.42109e-014 0 17.8912 -0.139907 0.082696 -9.5325 1.42109e-014 -8.88178e-015 49.9115 -6.10245 -5.5008 -3.6982 -7.10543e-015 6.66134e-015 59.3621 -3.58946 -5.3094 -2.9509 0 -1.77636e-015 20.8617 -0.418419 -2.1448 -9.1083 -0.5168 2.2601 42.5006 5.76252 4.79981 -3.6764 0 0 52.646 -2.8893 -5.08179 -2.8831 -1.42109e-014 0 13.1587 -0.222412 -0.0904137 -2.4648 -1.5727 2.6826 -4.65 15.0473 1.69949 -3.2298 -1.8647 1.8647 1.13475 8.44443 -11.7758 -2.6526 -1.5314 1.5314 9.02223 6.32569 -11.9526 8.2078 -6.7517 -1.5996 122.209 -85.593 109.992 0 -44.3705 0.2846 0.237591 70.5618 10.0437 0 -44.4279 -2.9822 -17.3198 -1.33907 7.18988 1.77636e-015 -8.7287 10.7106 1.26278e-006 1.43652 3.48539e-007 -8.2078 -6.7517 -1.5996 177.539 -68.3523 173.475 -4.44089e-016 -44.3705 0.2862 -175.336 79.4729 166.544 -1.77636e-015 -44.4277 -2.9838 -13.5081 -11.2565 -10.5778 0 -8.7287 10.7106 1.20393e-005 -0.36494 -1.77665e-006 
2.72009 117.534 -9.18333 -4.78366 32.8583 2.39438 0 10.1816 0.1315 -1.08999 5.72385 2.91148 -2.22045e-016 10.0835 -1.0008 -0.295511 2.88634 0.247346 4.44089e-016 9.1 -1.3734 -0.300251 2.88321 0.315721 4.44089e-016 16.6717 -2.5162 -0.773861 -8.56439 -1.4843 8.88178e-016 9.6179 1.685 2.04033 -6.65234 -10.5933 -1.77636e-015 17.8152 2.585 7.95139e-016 0 -0 3.0676 6.4095 9.2836 7.95139e-016 0 -0 -3.0676 6.4095 9.2835 7.95139e-016 0 -0 4.5704 10.946 -2.628 -2.91506 0.514897 -1.16557 10.5924 -0.5246 -2.2321 -38.32 12.6717 19.5757 27.8415 -0.0001 2.84217e-014 -0.000199441 3.37886e-006 -82.9124 28.3288 1.42109e-014 0 45.9281 -30.0696 -21.9191 2.4661 -1.575 2.6824 9.12957 13.5363 -3.54341 3.2298 -1.8647 1.8647 -5.053 8.76931 9.74602 2.6526 -1.5315 1.5315 3.67687 13.305 12.4556 9.1093 -0.5171 2.2601 -40.5763 5.12559 -6.65827 3.6764 1.42109e-014 1.42109e-014 -68.2672 -4.36634 5.67284 2.8831 3.55271e-015 0 -16.2211 -0.248674 1.39815 9.5334 1.42109e-014 -7.10543e-015 -45.4459 -5.52162 9.70298 3.6982 0 -1.42109e-014 -69.454 -4.57323 5.59936 2.9509 0 0 -17.2043 -0.283337 1.95918 9.1045 -0.0439 -1.8651 -50.868 -6.54239 15.8426 3.154 0 3.55271e-015 -66.3846 -3.2082 5.68541 2.9377 0 7.10543e-015 -22.2264 -0.167419 2.18143 8.0778 -0.4887 -3.8061 -46.5943 -18.1021 24.5355 3.6 0 0 -65.6812 -3.66053 4.86492 2.1142 -1.42109e-014 -7.10543e-015 -19.1737 -0.486953 2.71288 -4.57 10.9462 -2.628 2.30359 0.567079 1.9032 -10.5928 -0.5248 -2.2321 27.135 30.1708 -21.0872 -27.8415 0 2.84217e-014 1.24333e-005 -1.87492e-005 85.8407 -28.3288 0 0.0001 -36.1479 -13.21 28.0991 -8.0767 -0.4885 -3.806 57.4087 -16.8434 -19.1104 -3.6 0 0.0001 59.2088 -3.06773 -4.59447 -2.1142 0 0 25.9638 -0.952012 -0.282675 -9.1036 -0.0439 -1.8651 54.8066 -6.96738 -12.5689 -3.154 1.77636e-015 -3.55271e-015 60.0953 -2.66073 -5.38152 -2.9377 0 7.10543e-015 17.8912 -0.139904 0.0826918 -9.5325 0 1.77636e-015 49.9115 -6.10245 -5.50083 -3.6982 0 3.10862e-015 59.3621 -3.58944 -5.30937 -2.9509 0 -3.55271e-015 20.8617 -0.418424 -2.14479 -9.1083 -0.5168 2.2601 42.5006 5.76253 4.7998 -3.6764 0 0 52.646 -2.8893 -5.08178 -2.8831 0 -1.77636e-015 13.1587 -0.222409 -0.0904433 -2.4648 -1.5727 2.6826 -4.65 15.0473 1.69949 -3.2298 -1.8647 1.8647 1.13474 8.44444 -11.7758 -2.6526 -1.5314 1.5314 9.02224 6.32569 -11.9526 8.2078 -6.7517 -1.5996 24.7198 -76.3899 13.0847 0 -44.3705 0.2846 -0.00370744 55.1214 10.1525 0 -44.4279 -2.9822 -16.144 8.45837 5.57211 0 -8.7287 10.7106 -2.63168e-006 0.473454 -4.2675e-007 -8.2078 -6.7517 -1.5996 169.943 -81.4869 165.14 1.33227e-015 -44.3705 0.2862 -164.558 87.6712 155.271 0 -44.4277 -2.9838 -8.91277 -8.58924 -6.11781 0 -8.7287 10.7106 -9.05514e-007 -0.773707 4.16064e-007 
2.98356 107.885 -6.32037 -3.94264 28.4936 2.59715 0 10.1816 0.1315 -2.2429 5.31557 2.40261 -4.44089e-016 10.0835 -1.0008 -0.795857 2.28338 0.400156 -8.88178e-016 9.1 -1.3734 -0.801063 2.27817 0.476589 8.88178e-016 16.6717 -2.5162 -0.863282 -6.77607 -1.46371 1.77636e-015 9.6179 1.685 3.29519 -1.98176 -11.1933 1.77636e-015 17.8152 2.585 3.97569e-016 -3.18055e-015 -7.95139e-016 3.0676 6.4095 9.2836 3.97569e-016 -3.18055e-015 -7.95139e-016 -3.0676 6.4095 9.2835 3.97569e-016 -3.18055e-015 -7.95139e-016 4.5704 10.946 -2.628 -3.51767 0.480621 -0.627127 10.5924 -0.5246 -2.2321 -41.6269 11.5573 30.5713 27.8415 -0.0001 0 -7.37495e-005 2.92892e-005 -87.4405 28.3288 1.42109e-014 -3.55271e-015 43.1252 -26.929 -23.9801 2.4661 -1.575 2.6824 9.12956 13.5363 -3.54342 3.2298 -1.8647 1.8647 -5.05301 8.76931 9.74603 2.6526 -1.5315 1.5315 3.67687 13.305 12.4556 9.1093 -0.5171 2.2601 -40.5763 5.12558 -6.65825 3.6764 1.42109e-014 1.42109e-014 -68.2672 -4.36634 5.67284 2.8831 0 0 -16.2211 -0.248686 1.39815 9.5334 0 -7.10543e-015 -45.4459 -5.52164 9.70298 3.6982 1.42109e-014 -7.10543e-015 -69.454 -4.57322 5.59937 2.9509 -2.13163e-014 7.10543e-015 -17.2043 -0.28333 1.95918 9.1045 -0.0439 -1.8651 -50.868 -6.54239 15.8426 3.154 -1.42109e-014 3.55271e-015 -66.3846 -3.20821 5.68542 2.9377 0 -3.55271e-015 -22.2264 -0.16742 2.18142 8.0778 -0.4887 -3.8061 -46.5943 -18.1021 24.5355 3.6 0 -7.10543e-015 -65.6812 -3.66053 4.86493 2.1142 7.10543e-015 0 -19.1737 -0.486957 2.71288 -4.57 10.9462 -2.628 2.33579 0.325735 -0.43259 -10.5928 -0.5248 -2.2321 39.0226 30.7471 -33.345 -27.8415 0 -2.84217e-014 0.000137137 2.15234e-005 91.0231 -28.3288 0 0.0001 -33.7557 -11.5038 29.4462 -8.0767 -0.4885 -3.806 57.4087 -16.8434 -19.1105 -3.6 -8.88178e-016 0.0001 59.2088 -3.06772 -4.59444 -2.1142 -1.42109e-014 7.10543e-015 25.9639 -0.952004 -0.282666 -9.1036 -0.0439 -1.8651 54.8066 -6.96736 -12.5689 -3.154 -1.77636e-015 3.55271e-015 60.0953 -2.66073 -5.38152 -2.9377 0 -3.55271e-015 17.8912 -0.139902 0.0826961 -9.5325 -1.42109e-014 -1.77636e-015 49.9115 -6.10244 -5.50083 -3.6982 0 -1.77636e-015 59.362 -3.58945 -5.30941 -2.9509 0 0 20.8617 -0.41842 -2.14478 -9.1083 -0.5168 2.2601 42.5006 5.76253 4.79979 -3.6764 0 0 52.6459 -2.88929 -5.08178 -2.8831 7.10543e-015 -7.10543e-015 13.1587 -0.22241 -0.0904152 -2.4648 -1.5727 2.6826 -4.65 15.0473 1.69948 -3.2298 -1.8647 1.8647 1.13476 8.44444 -11.7758 -2.6526 -1.5314 1.5314 9.02224 6.32569 -11.9526 8.2078 -6.7517 -1.5996 12.7843 -60.4866 3.28314 3.55271e-015 -44.3705 0.2846 -0.0495781 41.057 9.72516 0 -44.4279 -2.9822 -12.5948 13.2402 2.21277 0 -8.7287 10.7106 -8.34656e-007 -2.95802 -1.65238e-006 -8.2078 -6.7517 -1.5996 4.43711 -81.8561 -0.373679 0 -44.3705 0.2862 0.896513 79.581 -6.92868 -4.44089e-016 -44.4277 -2.9838 -3.8531 -2.81809 0.215138 0 -8.7287 10.7106 -1.17565e-006 -1.92747 1.56856e-006 
